<?xml version="1.0" encoding="UTF-8"?>
<svg version="1.1" xmlns="http://www.w3.org/2000/svg" width="1361" height="428">
<path d="M0 0 C449.13 0 898.26 0 1361 0 C1361 141.24 1361 282.48 1361 428 C911.87 428 462.74 428 0 428 C0 286.76 0 145.52 0 0 Z " fill="#FEFEFE" transform="translate(0,0)"/>
<path d="M0 0 C35.64 0 71.28 0 108 0 C108 35.64 108 71.28 108 108 C72.36 108 36.72 108 0 108 C0 72.36 0 36.72 0 0 Z " fill="#666666" transform="translate(76,132)"/>
<path d="M0 0 C4.34450038 3.31557303 8.19394051 7.08918658 12 11 C12.61617187 11.61875 13.23234375 12.2375 13.8671875 12.875 C18.44912451 17.8130461 24 25.1338028 24 32 C20.02002749 33.41621711 16.03643831 34.82160564 12.04931641 36.2175293 C10.69641158 36.69283503 9.34449703 37.17097009 7.99365234 37.65209961 C-5.82514216 42.56987459 -5.82514216 42.56987459 -13 43 C-13.37511719 42.46890625 -13.75023437 41.9378125 -14.13671875 41.390625 C-18.62330335 35.19755608 -23.26431602 29.88275907 -31 28 C-40.47511112 27.10452334 -48.14249675 27.79730233 -55.75 33.6875 C-61.65344264 39.25321709 -63.2575921 44.2675323 -63.625 52.375 C-63.40159963 59.61749583 -61.92624981 64.6222609 -57 70 C-49.73106653 76.12649315 -43.78451519 77.43469207 -34.39453125 77.33984375 C-27.44062857 76.64365326 -22.12880188 73.61283511 -17.5 68.4375 C-15.63738413 66.09298642 -14.27876867 63.70554297 -13 61 C-4.08052157 62.43862555 4.21831646 65.2861872 12.73095703 68.22216797 C16.47878378 69.50692975 20.23942679 70.75313443 24 72 C22.9728157 82.03015257 15.04574991 92.71707212 7.51953125 99.10546875 C-8.77819005 111.95849334 -26.29197196 117.97675841 -47 116 C-66.34948963 113.11670741 -81.80333101 102.48411965 -93.4296875 87.109375 C-103.23027461 72.62155057 -104.69167239 55.31533833 -102.5 38.375 C-98.93018481 22.34776078 -88.30095491 8.37522391 -74.65625 -0.4765625 C-50.37300198 -14.40371945 -24.10741597 -15.20363168 0 0 Z " fill="#434343" transform="translate(894,136)"/>
<path d="M0 0 C7.67402409 6.70964138 13.51473978 15.06753484 17.6875 24.375 C17.6875 25.365 17.6875 26.355 17.6875 27.375 C13.22518684 28.95150357 8.75945181 30.51774363 4.2902832 32.07470703 C2.77140291 32.60544891 1.25348376 33.13894998 -0.26342773 33.67529297 C-2.44786833 34.44711433 -4.6356083 35.20884607 -6.82421875 35.96875 C-7.49837326 36.20936157 -8.17252777 36.44997314 -8.86711121 36.69787598 C-12.4215946 37.92045032 -15.54796876 38.92580271 -19.3125 38.375 C-20.70962274 36.41902816 -22.03177629 34.4090906 -23.3125 32.375 C-29.55384604 25.70156077 -35.75206262 23.26183436 -44.8125 22.9375 C-50.59269401 23.07799083 -54.56284038 24.1216532 -59.3125 27.375 C-60.199375 27.931875 -61.08625 28.48875 -62 29.0625 C-67.61542641 34.67792641 -69.66150934 39.83379154 -70 47.8125 C-69.72623303 55.00248512 -68.20328376 60.0359774 -63.3125 65.375 C-56.0403552 71.50419976 -50.10127551 72.79651284 -40.7109375 72.72265625 C-34.14457903 72.05092533 -29.37212503 69.08405055 -24.375 64.9375 C-22.19063127 62.22358734 -20.71792646 59.55570198 -19.3125 56.375 C-6.69993899 58.8975122 5.69788859 62.73970747 17.6875 67.375 C16.22467418 80.01531542 6.70685201 90.36247605 -2.875 98 C-17.97990632 108.92374771 -36.84609328 113.88601794 -55.33935547 111.06591797 C-69.42383512 108.33144052 -80.82652321 102.012112 -91.3125 92.375 C-91.95960937 91.78332031 -92.60671875 91.19164062 -93.2734375 90.58203125 C-97.33673334 86.41761266 -99.94625362 81.64330934 -102.5625 76.5 C-102.89209717 75.85216553 -103.22169434 75.20433105 -103.5612793 74.53686523 C-107.76181409 65.88112009 -109.86194529 57.69606381 -109.75 48.0625 C-109.74315186 47.14750732 -109.73630371 46.23251465 -109.72924805 45.28979492 C-109.55276574 37.80020318 -108.27563247 31.29221416 -105.3125 24.375 C-104.76916016 23.06015625 -104.76916016 23.06015625 -104.21484375 21.71875 C-96.49681225 4.76524351 -82.11055007 -5.91850497 -65.1640625 -12.58984375 C-42.91397582 -20.66693001 -18.25431272 -14.21574796 0 0 Z " fill="#434343" transform="translate(1155.3125,140.625)"/>
<path d="M0 0 C10.993125 -0.0825 21.98625 -0.165 33.3125 -0.25 C38.48740112 -0.30462402 38.48740112 -0.30462402 43.7668457 -0.36035156 C48.03356934 -0.37841797 48.03356934 -0.37841797 50.04142761 -0.3817749 C51.42099698 -0.38785115 52.80054733 -0.40177969 54.17997742 -0.42230225 C64.95736669 -0.5743971 75.6297916 0.0322824 83.9375 7.75 C90.29872875 13.98582818 92.20621488 18.5172973 92.5 27.5 C92.2769462 34.74565096 91.37611732 39.65280017 86.17578125 44.80859375 C84.49635681 46.28362576 82.79472444 47.66908075 81 49 C82.88238204 50.97677878 84.45669327 52.2841647 86.8125 53.75 C92.0739656 57.46397572 96.05821544 61.77381922 98 68 C98.849003 76.72696107 98.62201713 84.36642467 94 92 C93.443125 93.051875 92.88625 94.10375 92.3125 95.1875 C85.97496694 102.89531047 76.70927128 106.68193021 67 108 C64.72404771 108.08382378 62.44594837 108.11782254 60.16845703 108.11352539 C59.50361738 108.11364593 58.83877773 108.11376646 58.15379143 108.11389065 C56.02176329 108.11314986 53.88982481 108.10556004 51.7578125 108.09765625 C50.44675537 108.09664917 49.13569824 108.09564209 47.78491211 108.09460449 C42.89826581 108.0893816 38.01163201 108.07542034 33.125 108.0625 C22.19375 108.041875 11.2625 108.02125 0 108 C0 72.36 0 36.72 0 0 Z " fill="#020202" transform="translate(292,132)"/>
<path d="M0 0 C37.62 0 75.24 0 114 0 C114 12.21 114 24.42 114 37 C106.07027393 35.01756848 98.44728661 32.94983926 90.75 30.3125 C89.32880859 29.83200195 89.32880859 29.83200195 87.87890625 29.34179688 C85.58447318 28.56539781 83.2915736 27.78478989 81 27 C80.98969254 28.17541855 80.97938507 29.3508371 80.96876526 30.56187439 C80.87121017 41.61344159 80.76849356 52.66495024 80.66066074 63.71642208 C80.60538415 69.3987371 80.55195671 75.08105722 80.50268555 80.76342773 C80.45511169 86.24233709 80.40277169 91.72118168 80.34705925 97.20001411 C80.32660397 99.29527751 80.30789626 101.39055868 80.29092598 103.4858532 C80.26695196 106.40982398 80.23688822 109.33367111 80.20532227 112.25756836 C80.1995668 113.1329425 80.19381134 114.00831665 80.18788147 114.91021729 C80.11405216 120.88594784 80.11405216 120.88594784 79 122 C64.15 122 49.3 122 34 122 C34 90.65 34 59.3 34 27 C20.99780143 30.73658575 20.99780143 30.73658575 8.39453125 35.203125 C6 36 6 36 0 37 C0 24.79 0 12.58 0 0 Z " fill="#444444" transform="translate(926,128)"/>
<path d="M0 0 C5.52915778 4.4669058 9.23840934 10.14363478 11.37890625 16.921875 C11.37890625 19.891875 11.37890625 22.861875 11.37890625 25.921875 C0.48890625 25.921875 -10.40109375 25.921875 -21.62109375 25.921875 C-22.28109375 23.941875 -22.94109375 21.961875 -23.62109375 19.921875 C-28.72597878 15.19985635 -32.05672924 14.59433808 -38.84375 14.62109375 C-42.79514395 15.04902249 -44.6531055 16.35496625 -47.62109375 18.921875 C-47.92252291 22.26144808 -47.92252291 22.26144808 -46.62109375 25.921875 C-40.73813225 31.11102286 -31.79233612 32.22350527 -24.37866211 33.97924805 C-9.62750165 37.52056933 3.77018773 41.49286131 12.25 54.87109375 C15.76765758 61.26130215 15.26598575 69.82041788 14.37890625 76.921875 C11.37408526 86.65534872 5.55405265 93.88449426 -3.37109375 98.671875 C-19.62129743 106.20245719 -40.6242379 107.93544883 -57.62109375 101.921875 C-70.96014112 96.26555504 -77.54545889 87.81984538 -82.93359375 74.734375 C-83.62109375 71.921875 -83.62109375 71.921875 -83.62109375 64.921875 C-72.40109375 64.921875 -61.18109375 64.921875 -49.62109375 64.921875 C-48.30109375 68.221875 -46.98109375 71.521875 -45.62109375 74.921875 C-40.58986571 79.32419954 -36.01106556 79.47186155 -29.44140625 79.2578125 C-25.60447522 78.80078193 -22.39413333 77.69491458 -19.62109375 74.921875 C-19.01509124 70.83368271 -19.01509124 70.83368271 -19.62109375 66.921875 C-24.75940486 62.28853584 -31.2481082 61.11715091 -37.80859375 59.421875 C-69.65748012 51.0436094 -69.65748012 51.0436094 -78.62109375 37.921875 C-82.44801088 31.26577271 -82.7941607 23.6490555 -80.96484375 16.27734375 C-77.25898649 5.8785805 -70.31392455 -0.20888504 -60.62109375 -5.078125 C-42.02358866 -13.50460518 -16.7422657 -11.40521157 0 0 Z " fill="#020202" transform="translate(575.62109375,138.078125)"/>
<path d="M0 0 C11.88 0 23.76 0 36 0 C37.4746875 4.04894531 38.949375 8.09789062 40.46875 12.26953125 C42.21463564 17.06015141 43.96122399 21.85051512 45.70808029 26.6407814 C46.23420934 28.0836098 46.76028445 29.52645787 47.28630447 30.96932602 C52.84753322 46.22357675 58.41101819 61.47653182 64.08984375 76.6875 C64.46795197 77.70035568 64.84606018 78.71321136 65.23562622 79.75675964 C66.97673107 84.41599432 68.72346829 89.07304708 70.4765625 93.7277832 C71.0872485 95.35627921 71.69792615 96.98477834 72.30859375 98.61328125 C72.58557602 99.34357544 72.86255829 100.07386963 73.14793396 100.82629395 C75 105.77420048 75 105.77420048 75 108 C63.12 108 51.24 108 39 108 C37.35 103.05 35.7 98.1 34 93 C22.78 92.67 11.56 92.34 0 92 C-1.06417979 97.32089897 -2.10792613 102.64755676 -3 108 C-14.88 108 -26.76 108 -39 108 C-37.87507821 101.25046924 -37.87507821 101.25046924 -36.6875 98.1015625 C-36.42148483 97.3878952 -36.15546967 96.67422791 -35.88139343 95.93893433 C-35.5905336 95.175336 -35.29967377 94.41173767 -35 93.625 C-34.69226151 92.80347443 -34.38452301 91.98194885 -34.06745911 91.13552856 C-33.04984849 88.42182649 -32.02485054 85.71097518 -31 83 C-29.91777917 80.11907239 -28.83751278 77.23741639 -27.75727844 74.35574341 C-27.00358907 72.34563824 -26.24925459 70.33577486 -25.49430847 68.32614136 C-20.85336013 55.96656121 -16.29442737 43.57673154 -11.73071289 31.18847656 C-10.70275182 28.39880536 -9.67370022 25.60953826 -8.64453125 22.8203125 C-8.34924026 22.01763947 -8.05394928 21.21496643 -7.74971008 20.38796997 C-5.23132177 13.56484208 -2.61175033 6.79055086 0 0 Z " fill="#030303" transform="translate(424,132)"/>
<path d="M0 0 C27.39 0 54.78 0 83 0 C83 9.57 83 19.14 83 29 C66.83 29 50.66 29 34 29 C34 34.94 34 40.88 34 47 C48.52 47 63.04 47 78 47 C78 56.24 78 65.48 78 75 C63.15 75 48.3 75 33 75 C33 85.89 33 96.78 33 108 C22.11 108 11.22 108 0 108 C0 72.36 0 36.72 0 0 Z " fill="#040404" transform="translate(596,132)"/>
<path d="M0 0 C14.52 0 29.04 0 44 0 C44 39.93 44 79.86 44 121 C29.48 121 14.96 121 0 121 C0 81.07 0 41.14 0 0 Z " fill="#414141" transform="translate(1182,128)"/>
<path d="M0 0 C0.92143799 0.52537354 1.84287598 1.05074707 2.79223633 1.59204102 C4.52509888 2.59642212 4.52509888 2.59642212 6.29296875 3.62109375 C9.98484375 5.74546875 13.67671875 7.86984375 17.48046875 10.05859375 C17.48046875 20.61859375 17.48046875 31.17859375 17.48046875 42.05859375 C11.94265625 45.24515625 11.94265625 45.24515625 6.29296875 48.49609375 C5.13772705 49.16568115 3.98248535 49.83526855 2.79223633 50.52514648 C1.41007935 51.31320679 1.41007935 51.31320679 0 52.1171875 C-0.93739014 52.65657959 -1.87478027 53.19597168 -2.84057617 53.75170898 C-6.6485901 55.60938679 -9.11551429 56.39496895 -13.2902832 55.39477539 C-21.24501439 52.24233277 -28.93815906 48.72761796 -34.51953125 42.05859375 C-38.23686135 33.18898369 -38.49943011 22.92332739 -36.02099609 13.64111328 C-32.44599958 5.11111347 -24.34497309 1.44782948 -16.2578125 -2.1015625 C-9.63199096 -4.72736113 -6.03042341 -3.47002018 0 0 Z " fill="#FAA21C" transform="translate(1270.51953125,68.94140625)"/>
<path d="M0 0 C13.86 0 27.72 0 42 0 C42 13.86 42 27.72 42 42 C28.14 42 14.28 42 0 42 C0 28.14 0 14.28 0 0 Z " fill="#696969" transform="translate(217,165)"/>
<path d="M0 0 C13.86 0 27.72 0 42 0 C42 13.86 42 27.72 42 42 C28.14 42 14.28 42 0 42 C0 28.14 0 14.28 0 0 Z " fill="#FAFAFA" transform="translate(109,165)"/>
<path d="M0 0 C22.44654939 -0.62787551 22.44654939 -0.62787551 31 6.5 C35.1690187 11.71127337 34.7054044 18.60214617 34 25 C32.3237243 29.85649968 29.91726537 32.64967517 25.5 35.203125 C20.39637932 37.62407327 15.5446202 37.44727396 10 37.25 C6.7 37.1675 3.4 37.085 0 37 C0 24.79 0 12.58 0 0 Z " fill="#4A4A4A" transform="translate(809,284)"/>
<path d="M0 0 C2.31 0 4.62 0 7 0 C8.14521712 4.62503244 9.28437087 9.25150047 10.41796875 13.87939453 C10.80433148 15.45304474 11.19233846 17.02629222 11.58203125 18.59912109 C12.14236863 20.8619121 12.6967475 23.12609275 13.25 25.390625 C13.42499023 26.09181458 13.59998047 26.79300415 13.78027344 27.51544189 C14.58128802 30.81811607 15 33.57284955 15 37 C15.66 37 16.32 37 17 37 C17.13736572 36.12529053 17.27473145 35.25058105 17.41625977 34.34936523 C17.94358202 31.32371322 18.59218069 28.38764631 19.33984375 25.41015625 C19.59830078 24.37826172 19.85675781 23.34636719 20.12304688 22.28320312 C20.39181641 21.22037109 20.66058594 20.15753906 20.9375 19.0625 C21.20240234 18.00353516 21.46730469 16.94457031 21.74023438 15.85351562 C23.07561135 10.54183004 24.45292884 5.25406294 26 0 C28.64 0 31.28 0 34 0 C35.12436564 4.30414655 36.24526161 8.60917762 37.36303711 12.91503906 C37.74328352 14.37784844 38.124455 15.84041769 38.5065918 17.30273438 C39.05764874 19.41212576 39.6053053 21.5223759 40.15234375 23.6328125 C40.48226318 24.90012207 40.81218262 26.16743164 41.15209961 27.47314453 C41.91383394 30.64159085 42.51236095 33.77941502 43 37 C43.66 37 44.32 37 45 37 C45.103125 35.94296875 45.20625 34.8859375 45.3125 33.796875 C46.05751391 27.84201029 47.56390705 22.06888606 49 16.25 C49.27328125 15.12722656 49.5465625 14.00445312 49.828125 12.84765625 C50.87268202 8.56190025 51.92714657 4.27876214 53 0 C55.31 0 57.62 0 60 0 C57.96897555 9.78475896 55.69353686 19.45424282 52.9375 29.0625 C52.69241699 29.91739014 52.44733398 30.77228027 52.19482422 31.65307617 C50.59480131 37.14827192 48.8494738 42.58385884 47 48 C44.69 48 42.38 48 40 48 C39.80365967 47.20416504 39.60731934 46.40833008 39.4050293 45.58837891 C38.6633522 42.58723472 37.91943173 39.58665737 37.17407227 36.58642578 C36.69834377 34.66871242 36.2251191 32.75037848 35.75195312 30.83203125 C34.01012604 23.82805286 32.16681005 16.88517204 30 10 C26.16565245 22.62304109 22.47382328 35.27289523 19 48 C16.69 48 14.38 48 12 48 C3.27448586 15.89849055 3.27448586 15.89849055 0 0 Z " fill="#121212" transform="translate(76,285)"/>
<path d="M0 0 C3.17625 -0.061875 6.3525 -0.12375 9.625 -0.1875 C11.1092749 -0.22846802 11.1092749 -0.22846802 12.62353516 -0.27026367 C17.82654348 -0.31917006 21.5651546 -0.03616339 26 3 C28.820631 5.86833723 29.43135748 7.95100643 29.4375 11.9375 C29.33561219 15.57328593 29.08021871 16.8689761 27.125 20.0625 C25 22 25 22 23 23 C24.12188841 26.08519311 25.4616463 28.86805649 27.125 31.6875 C29 35 29 35 29 37 C26.03 37 23.06 37 20 37 C18.99491199 35.21118264 17.99607264 33.41885304 17 31.625 C16.443125 30.62726563 15.88625 29.62953125 15.3125 28.6015625 C14 26 14 26 14 24 C12.02 24 10.04 24 8 24 C8 28.29 8 32.58 8 37 C5.36 37 2.72 37 0 37 C0 24.79 0 12.58 0 0 Z " fill="#474747" transform="translate(1034,284)"/>
<path d="M0 0 C2.64 0 5.28 0 8 0 C8 3.96 8 7.92 8 12 C8.99 11.34 9.98 10.68 11 10 C14.7411579 9.32302857 18.43405275 9.17077477 21.8515625 10.98046875 C24.66843807 13.23535683 27.00488044 15.51708153 28 19 C28.62922178 25.2922178 27.68029517 29.78524952 24 35 C21.17461944 37.37926784 19.60283501 37.93848622 15.9375 38.3125 C13.10447618 38.01111449 11.40338972 37.47900906 9 36 C8.505 36.495 8.505 36.495 8 37 C5.36 37 2.72 37 0 37 C0 24.79 0 12.58 0 0 Z " fill="#4F4F4F" transform="translate(1155,284)"/>
<path d="M0 0 C1.31355469 -0.04898437 2.62710937 -0.09796875 3.98046875 -0.1484375 C7.61388339 0.3478699 10.01931281 0.90349229 12.72485352 3.47167969 C15.23524991 7.8647325 14.40117202 13.29769806 14.1875 18.1875 C14.16042969 19.35732422 14.13335937 20.52714844 14.10546875 21.73242188 C14.03487105 24.61516135 13.93630574 27.49413571 13.8125 30.375 C14.8025 30.375 15.7925 30.375 16.8125 30.375 C16.8125 32.025 16.8125 33.675 16.8125 35.375 C10.28942308 35.74423077 10.28942308 35.74423077 7.875 33.875 C7.524375 33.38 7.17375 32.885 6.8125 32.375 C6.02875 32.87 5.245 33.365 4.4375 33.875 C-0.22450147 35.80410406 -4.20370774 36.1474878 -9.1875 35.375 C-12.12173195 33.57853146 -13.65955355 32.4308929 -15.1875 29.375 C-15.56862297 25.33509652 -15.6115682 23.08178033 -13.5 19.5625 C-9.47387147 15.75400004 -4.68711962 14.93047103 0.625 13.75 C2.36716797 13.35941406 2.36716797 13.35941406 4.14453125 12.9609375 C5.46517578 12.67089844 5.46517578 12.67089844 6.8125 12.375 C6.855221 10.70888095 6.85313832 9.04117115 6.8125 7.375 C5.07500893 5.63750893 2.80201518 6.080679 0.4375 6 C-2.53276 5.93792394 -2.53276 5.93792394 -5.1875 6.375 C-7.0499438 8.78358714 -7.0499438 8.78358714 -8.1875 11.375 C-11.375 11.6875 -11.375 11.6875 -14.1875 11.375 C-13.77235103 6.5315954 -11.72541301 4.55912171 -8.1875 1.375 C-6.21967226 -0.59282774 -2.6735393 0.05575153 0 0 Z " fill="#0E0E0E" transform="translate(297.1875,297.625)"/>
<path d="M0 0 C1.65 0 3.3 0 5 0 C5.33 1.32 5.66 2.64 6 4 C6.598125 3.34 7.19625 2.68 7.8125 2 C12.41705148 -0.88913034 16.69172074 -0.84932468 22 0 C24.6875 2 24.6875 2 26 4 C26.86625 3.01 26.86625 3.01 27.75 2 C32.52054983 -0.93572297 37.53879915 -1.16921986 43 0 C46.27174859 2.60487428 47.83367275 4.05361582 48.56762695 8.22973633 C48.54144287 9.41849365 48.51525879 10.60725098 48.48828125 11.83203125 C48.47216797 13.12431641 48.45605469 14.41660156 48.43945312 15.74804688 C48.39768274 17.10288157 48.35535809 18.45769928 48.3125 19.8125 C48.28740069 21.18680866 48.26459036 22.56116116 48.24414062 23.93554688 C48.18526461 27.29147976 48.1030642 30.6451809 48 34 C46.35 34 44.7 34 43 34 C42.970271 32.83428467 42.970271 32.83428467 42.93994141 31.64501953 C42.84492991 28.13799309 42.73515441 24.63158206 42.625 21.125 C42.5940625 19.90167969 42.563125 18.67835938 42.53125 17.41796875 C42.47324219 15.66806641 42.47324219 15.66806641 42.4140625 13.8828125 C42.3826416 12.80402832 42.3512207 11.72524414 42.31884766 10.61376953 C42.25323678 7.84238346 42.25323678 7.84238346 40 6 C37.89582032 5.64360439 37.89582032 5.64360439 35.5625 5.6875 C34.78003906 5.67074219 33.99757813 5.65398437 33.19140625 5.63671875 C30.39295939 6.1006324 29.70035294 6.7437739 28 9 C27.4939264 11.8028729 27.4939264 11.8028729 27.48828125 14.98046875 C27.45283203 16.14384766 27.41738281 17.30722656 27.38085938 18.50585938 C27.35830078 19.72080078 27.33574219 20.93574219 27.3125 22.1875 C27.27833984 23.41404297 27.24417969 24.64058594 27.20898438 25.90429688 C27.1264059 28.93610678 27.05728631 31.96762379 27 35 C25.02 35 23.04 35 21 35 C20.97494385 34.15703369 20.9498877 33.31406738 20.92407227 32.44555664 C20.82911845 29.32758326 20.72987552 26.20978497 20.62768555 23.09204102 C20.58428777 21.74085853 20.5426163 20.38961947 20.50268555 19.03833008 C20.44510048 17.09963299 20.38085702 15.16113724 20.31640625 13.22265625 C20.27974854 12.05484619 20.24309082 10.88703613 20.20532227 9.68383789 C20.29923812 7.08220205 20.29923812 7.08220205 19 6 C13.53974282 5.30457856 13.53974282 5.30457856 8.90649414 7.66040039 C6.53070629 10.57590493 6.46664335 12.13447575 6.390625 15.859375 C6.35839844 16.97441406 6.32617188 18.08945312 6.29296875 19.23828125 C6.27878906 20.39714844 6.26460938 21.55601562 6.25 22.75 C6.22035156 23.92433594 6.19070313 25.09867187 6.16015625 26.30859375 C6.08949273 29.20579822 6.03677734 32.10219955 6 35 C4.02 35 2.04 35 0 35 C0 23.45 0 11.9 0 0 Z " fill="#0E0E0E" transform="translate(503,298)"/>
<path d="M0 0 C0.99386719 0.10183594 1.98773437 0.20367187 3.01171875 0.30859375 C3.77097656 0.39238281 4.53023437 0.47617187 5.3125 0.5625 C5.5798999 1.3145874 5.8472998 2.0666748 6.12280273 2.84155273 C7.32894061 6.22875281 8.53940977 9.61438879 9.75 13 C10.38131836 14.77600586 10.38131836 14.77600586 11.02539062 16.58789062 C11.42822266 17.71259766 11.83105469 18.83730469 12.24609375 19.99609375 C12.61790771 21.03822021 12.98972168 22.08034668 13.37280273 23.15405273 C14.09349555 25.47740302 14.09349555 25.47740302 15.3125 26.5625 C18.2825 17.9825 21.2525 9.4025 24.3125 0.5625 C26.2925 0.5625 28.2725 0.5625 30.3125 0.5625 C29.58674486 5.20334837 27.98438792 9.36014562 26.29296875 13.71484375 C25.99312576 14.49259659 25.69328278 15.27034943 25.38435364 16.07167053 C24.75014426 17.71226013 24.11376026 19.35201053 23.4753418 20.9909668 C22.50583427 23.48499153 21.54850426 25.98346379 20.59179688 28.48242188 C19.97209404 30.08101618 19.35167458 31.6793329 18.73046875 33.27734375 C18.44801804 34.01814682 18.16556732 34.75894989 17.8745575 35.52220154 C13.58977747 46.42386127 13.58977747 46.42386127 9.3125 48.5625 C6.9795134 48.60272391 4.64543334 48.60570247 2.3125 48.5625 C2.3125 46.9125 2.3125 45.2625 2.3125 43.5625 C3.735625 43.4696875 3.735625 43.4696875 5.1875 43.375 C8.39570883 42.89618977 8.39570883 42.89618977 9.75 40.5625 C11.44226658 31.53707826 7.67119273 23.65533287 4.25 15.5 C3.77755859 14.34822266 3.30511719 13.19644531 2.81835938 12.00976562 C1.65988204 9.18963393 0.49111164 6.37426228 -0.6875 3.5625 C-1.0175 4.5525 -1.3475 5.5425 -1.6875 6.5625 C-2.76 6.645 -3.8325 6.7275 -4.9375 6.8125 C-9.00157952 7.6253159 -10.21822559 8.33344885 -12.6875 11.5625 C-13.6175889 14.3527667 -13.87448769 16.32779542 -14.00390625 19.23046875 C-14.04580078 20.12314453 -14.08769531 21.01582031 -14.13085938 21.93554688 C-14.18983398 23.32870117 -14.18983398 23.32870117 -14.25 24.75 C-14.29318359 25.69037109 -14.33636719 26.63074219 -14.38085938 27.59960938 C-14.48688665 29.92042854 -14.58895029 32.24135325 -14.6875 34.5625 C-16.3375 34.5625 -17.9875 34.5625 -19.6875 34.5625 C-19.6875 23.3425 -19.6875 12.1225 -19.6875 0.5625 C-18.0375 0.5625 -16.3875 0.5625 -14.6875 0.5625 C-14.3575 2.2125 -14.0275 3.8625 -13.6875 5.5625 C-12.924375 4.758125 -12.16125 3.95375 -11.375 3.125 C-7.47453447 -0.59404853 -5.13646187 -0.54386067 0 0 Z " fill="#131313" transform="translate(648.6875,297.4375)"/>
<path d="M0 0 C4.96545362 2.12805155 6.97700942 5.05629906 9.3359375 9.70703125 C10 12 10 12 10 19 C1.42 19 -7.16 19 -16 19 C-13.97384121 26.77277038 -13.97384121 26.77277038 -10 29 C-7.81813053 29.3157994 -7.81813053 29.3157994 -5.5 29.25 C-4.33984375 29.25773437 -4.33984375 29.25773437 -3.15625 29.265625 C-0.70486156 29.12738062 -0.70486156 29.12738062 2 27 C2.33 26.01 2.66 25.02 3 24 C4.98 24 6.96 24 9 24 C8.58565093 28.83407252 6.62206046 30.89537674 3 34 C-2.39537951 35.79845984 -9.00911754 36.46151324 -14.23828125 33.90625 C-18.96633 30.09951268 -21.46478524 25.67433954 -22.34765625 19.61328125 C-22.82230763 11.66591334 -19.8176573 7.41534218 -14.9375 1.5 C-10.11047806 -0.96486227 -5.2978945 -0.69009209 0 0 Z " fill="#0E0E0E" transform="translate(268,298)"/>
<path d="M0 0 C4.19279817 1.69496096 6.46477402 4.28770482 9 8 C10.5003477 11.75086925 10 14.69779256 10 19 C1.75 19 -6.5 19 -15 19 C-13.74429696 25.19153375 -13.74429696 25.19153375 -10 29 C-6.61370824 29.678389 -3.39406787 29.62728647 0 29 C2.33630748 26.60140956 2.33630748 26.60140956 4 24 C6.75 23.6875 6.75 23.6875 9 24 C8.73517462 27.88410563 8.46605993 29.5462048 5.625 32.3125 C0.37520567 35.68736779 -4.93340079 35.6083982 -11 35 C-15.28446188 33.05251733 -18.12356265 30.49701888 -20.3046875 26.25390625 C-22.17558351 20.1892602 -22.3217124 12.66996992 -19.375 6.9375 C-13.77498088 0.01116056 -8.58958819 -1.07698201 0 0 Z " fill="#0C0C0C" transform="translate(360,298)"/>
<path d="M0 0 C4.53917845 2.02641895 6.82057608 4.69720625 9.3359375 8.828125 C10 11 10 11 10 19 C1.42 19 -7.16 19 -16 19 C-15.01 21.97 -14.02 24.94 -13 28 C-8.68191706 29.43936098 -4.507253 29.69914485 0 29 C2.33630748 26.60140956 2.33630748 26.60140956 4 24 C6.75 23.6875 6.75 23.6875 9 24 C8.58565093 28.83407252 6.62206046 30.89537674 3 34 C-2.8008561 35.9336187 -8.8981746 35.99359019 -14.4375 33.375 C-18.34870047 29.74998493 -20.75168237 26.70900958 -21.53125 21.34375 C-21.5209375 20.0753125 -21.510625 18.806875 -21.5 17.5 C-21.51546875 15.59734375 -21.51546875 15.59734375 -21.53125 13.65625 C-20.77979277 8.48445609 -18.29258006 5.53493882 -15 1.625 C-10.16655417 -0.99311649 -5.36794433 -0.70650014 0 0 Z " fill="#0C0C0C" transform="translate(157,298)"/>
<path d="M0 0 C4.51365757 2.05166253 6.82621466 4.70646635 9.3359375 8.828125 C10 11 10 11 10 19 C1.75 19 -6.5 19 -15 19 C-14.34 21.97 -13.68 24.94 -13 28 C-8.68191706 29.43936098 -4.507253 29.69914485 0 29 C2.33630748 26.60140956 2.33630748 26.60140956 4 24 C6.75 23.6875 6.75 23.6875 9 24 C8.58565093 28.83407252 6.62206046 30.89537674 3 34 C-2.77793782 35.92597927 -8.85227999 35.93718691 -14.4375 33.5 C-19.64969006 28.41493652 -21.25386064 23.77939252 -21.625 16.5 C-21.4569585 10.93524105 -20.28287176 7.70985129 -16.703125 3.48828125 C-11.72567574 -0.86127877 -6.33782925 -0.7266887 0 0 Z " fill="#0C0C0C" transform="translate(487,298)"/>
<path d="M0 0 C2.2734375 1.03515625 2.2734375 1.03515625 4 2 C4 1.34 4 0.68 4 0 C6.64 0 9.28 0 12 0 C12 8.91 12 17.82 12 27 C8.33333333 27 4.66666667 27 1 27 C0.34 27.33 -0.32 27.66 -1 28 C-4.9079648 28.44408691 -6.74548146 28.13704844 -10.25 26.25 C-13.79338995 23.35086277 -14.79039345 21.54181744 -15.40625 17.01171875 C-15.69095518 6.91654745 -15.69095518 6.91654745 -12.5625 2.6875 C-8.86004043 -0.86545407 -4.87267091 -1.00111239 0 0 Z " fill="#4E4E4E" transform="translate(1138,294)"/>
<path d="M0 0 C3.07893658 2.17778441 4.22972253 3.25842675 5.5625 6.8125 C6.2201681 12.13068028 6.21335452 16.4106595 3.9375 21.3125 C0.2678959 25.17524116 -3.13239499 26.93614837 -8.4375 27.25 C-12.68380623 27.07137909 -15.19818611 25.5998166 -18.4375 22.8125 C-22.3382185 17.41650608 -22.24985566 12.25778339 -21.4375 5.8125 C-16.8562973 -2.3682191 -8.23816785 -2.84591253 0 0 Z " fill="#494949" transform="translate(933.4375,295.1875)"/>
<path d="M0 0 C4.20902296 -0.10807762 8.41526202 -0.1873684 12.625 -0.25 C14.40970703 -0.30027344 14.40970703 -0.30027344 16.23046875 -0.3515625 C27.27640913 -0.47498083 27.27640913 -0.47498083 32 4 C33.74989713 7.49979425 32.97392321 11.30172402 32 15 C28.85512093 18.31039902 26.07484582 19.90739963 21.45629883 20.11352539 C20.46654053 20.10828857 19.47678223 20.10305176 18.45703125 20.09765625 C17.38388672 20.09443359 16.31074219 20.09121094 15.20507812 20.08789062 C14.08552734 20.07951172 12.96597656 20.07113281 11.8125 20.0625 C10.68134766 20.05798828 9.55019531 20.05347656 8.38476562 20.04882812 C5.58982124 20.03703511 2.79490401 20.01909957 0 20 C0 13.4 0 6.8 0 0 Z " fill="#F5F5F5" transform="translate(325,196)"/>
<path d="M0 0 C1.98 0 3.96 0 6 0 C6.33 5.28 6.66 10.56 7 16 C8.32 15.01 9.64 14.02 11 13 C15.05366518 12.33089433 18.93913712 12.38976104 23 13 C25.97361086 15.21563162 27.36959793 16.73919585 29 20 C29.08543895 22.10528933 29.10714725 24.21331157 29.09765625 26.3203125 C29.09443359 27.57714844 29.09121094 28.83398438 29.08789062 30.12890625 C29.07951172 31.44761719 29.07113281 32.76632812 29.0625 34.125 C29.05748489 35.46484211 29.05292201 36.804686 29.04882812 38.14453125 C29.03701086 41.42973206 29.02053617 44.71484397 29 48 C27.02 48 25.04 48 23 48 C22.98018066 47.19256348 22.96036133 46.38512695 22.93994141 45.55322266 C22.84494101 41.91014125 22.73516088 38.26765314 22.625 34.625 C22.5940625 33.35398437 22.563125 32.08296875 22.53125 30.7734375 C22.49257813 29.56171875 22.45390625 28.35 22.4140625 27.1015625 C22.3826416 25.98088379 22.3512207 24.86020508 22.31884766 23.70556641 C22.26588797 20.85289588 22.26588797 20.85289588 20 19 C17.9336387 18.56785704 17.9336387 18.56785704 15.625 18.5625 C14.85414063 18.52253906 14.08328125 18.48257812 13.2890625 18.44140625 C10.8477415 18.8702837 10.8477415 18.8702837 8.7578125 20.7578125 C6.04462027 25.76214483 6.32210266 30.70487953 6.25 36.3125 C6.22035156 37.43462891 6.19070313 38.55675781 6.16015625 39.71289062 C6.08962583 42.47533207 6.03684507 45.23693774 6 48 C4.02 48 2.04 48 0 48 C0 32.16 0 16.32 0 0 Z " fill="#151515" transform="translate(430,285)"/>
<path d="M0 0 C2.48218278 2.18131214 3.76977212 3.75077606 5.0625 6.8125 C5.0625 9.4525 5.0625 12.0925 5.0625 14.8125 C-1.2075 14.8125 -7.4775 14.8125 -13.9375 14.8125 C-10.6838308 20.04180843 -10.6838308 20.04180843 -7 20.25 C-4.01020078 19.82288583 -1.661714 19.09448306 1.0625 17.8125 C3.0625 20.8125 3.0625 20.8125 3.0625 23.8125 C-1.85114452 26.21918303 -5.34756182 27.42231144 -10.9375 26.8125 C-15.61920268 25.06833626 -18.14999191 22.94214161 -20.9375 18.8125 C-22.42082472 14.36252583 -23.04883329 10.09740125 -20.9609375 5.8046875 C-15.89662763 -1.62089569 -8.42776734 -3.40696978 0 0 Z " fill="#4C4C4C" transform="translate(1087.9375,295.1875)"/>
<path d="M0 0 C4.4125235 2.1661479 7.09058512 4.43862 9 9 C9 11.31 9 13.62 9 16 C2.73 16 -3.54 16 -10 16 C-9.34 17.32 -8.68 18.64 -8 20 C-3.39502873 21.15124282 0.38819892 21.01234658 5 20 C5.66 21.32 6.32 22.64 7 24 C1.80364728 27.23016521 -1.8061858 28.51615118 -8 28 C-11.56124107 26.65723697 -14.31914432 24.72478185 -16.9375 21.9375 C-18.62527136 17.27130859 -18.88634403 12.88536078 -18 8 C-13.63725581 0.36853311 -8.40864082 -0.92998792 0 0 Z " fill="#4C4C4C" transform="translate(1217,294)"/>
<path d="M0 0 C3.55073734 1.71196265 5.36617723 2.93402533 7.375 6.3125 C8 9 8 9 8 16 C1.73 16 -4.54 16 -11 16 C-7.69170509 21.32668336 -7.69170509 21.32668336 -3.5 21.4375 C-0.42262412 21.05282802 1.4256806 20.64756442 4 19 C6 22 6 22 6 25 C0.00185051 27.93786914 -4.52743958 29.18067054 -11.125 26.9375 C-15.26415045 24.14807252 -18.32110642 21.00484201 -19.44921875 16.01171875 C-19.74966433 10.67621972 -18.10154552 7.27510329 -15 3 C-10.72033511 -0.9020474 -5.49750555 -0.7916408 0 0 Z " fill="#4C4C4C" transform="translate(987,294)"/>
<path d="M0 0 C1.23234375 -0.02578125 2.4646875 -0.0515625 3.734375 -0.078125 C7.49052044 0.27244857 9.28730011 0.96936052 12.25 3.25 C14.25 6.25 14.25 6.25 14.25 10.25 C12.27 10.25 10.29 10.25 8.25 10.25 C7.92 9.26 7.59 8.27 7.25 7.25 C4.72524538 5.98762269 2.93799534 6.15143596 0.125 6.1875 C-0.78507813 6.19652344 -1.69515625 6.20554687 -2.6328125 6.21484375 C-3.68082031 6.23224609 -3.68082031 6.23224609 -4.75 6.25 C-5.08 7.9 -5.41 9.55 -5.75 11.25 C-1.69523357 12.84294396 2.17398491 14.2860711 6.4375 15.1875 C10.4974583 16.31896379 12.57254585 16.98685276 15.25 20.25 C15.96848881 23.39486084 15.96756313 26.10505533 15.25 29.25 C13.06840855 32.00569447 11.37822506 33.68588747 8.25 35.25 C5.98255726 35.39943856 3.7096825 35.47144902 1.4375 35.5 C-0.39748047 35.53867187 -0.39748047 35.53867187 -2.26953125 35.578125 C-6.00431539 35.22602414 -7.80097895 34.51603413 -10.75 32.25 C-12.9019437 29.02208445 -12.95086443 27.96599191 -12.75 24.25 C-11.1 24.25 -9.45 24.25 -7.75 24.25 C-7.46125 24.889375 -7.1725 25.52875 -6.875 26.1875 C-5.92176549 28.40206079 -5.92176549 28.40206079 -3.75 29.25 C-2.08555539 29.3455931 -0.41718037 29.37984645 1.25 29.375 C2.5803125 29.37886719 2.5803125 29.37886719 3.9375 29.3828125 C6.27676966 29.40127902 6.27676966 29.40127902 8.25 28.25 C8.25 26.6 8.25 24.95 8.25 23.25 C7.115625 22.816875 5.98125 22.38375 4.8125 21.9375 C4.08675781 21.66035156 3.36101563 21.38320313 2.61328125 21.09765625 C1.04430317 20.53489882 -0.54310314 20.02099632 -2.14453125 19.55859375 C-5.93185041 18.45945469 -8.34312988 17.61717547 -11.3125 14.9375 C-13.08070895 11.63171804 -13.44264272 9.94409453 -12.75 6.25 C-10.3125 3.4375 -10.3125 3.4375 -7.75 1.25 C-5.83392105 -0.66607895 -2.54780909 0.03171547 0 0 Z " fill="#0F0F0F" transform="translate(585.75,297.75)"/>
<path d="M0 0 C3.7501919 -0.0539165 7.49960961 -0.09363473 11.25 -0.125 C12.84521484 -0.15013672 12.84521484 -0.15013672 14.47265625 -0.17578125 C16.00986328 -0.18544922 16.00986328 -0.18544922 17.578125 -0.1953125 C18.52075195 -0.20578613 19.46337891 -0.21625977 20.43457031 -0.22705078 C23.1655208 0.01464925 24.71921031 0.49921793 27 2 C29.33909307 5.5086396 29.41291057 6.87089433 29 11 C27.2764367 14.79183927 25.84830628 16.48628764 22 18 C19.52636719 18.22705078 19.52636719 18.22705078 16.796875 18.1953125 C15.32734375 18.18564453 15.32734375 18.18564453 13.828125 18.17578125 C12.81234375 18.15902344 11.7965625 18.14226562 10.75 18.125 C9.71875 18.11597656 8.6875 18.10695312 7.625 18.09765625 C5.08323384 18.07412138 2.54158728 18.03825131 0 18 C0 12.06 0 6.12 0 0 Z " fill="#F3F3F3" transform="translate(325,157)"/>
<path d="M0 0 C1.65515625 0.00193359 1.65515625 0.00193359 3.34375 0.00390625 C7.68717275 0.60058933 10.34074995 2.19830167 13.3125 5.375 C14.5 7.4375 14.5 7.4375 14.5 11.4375 C12.25 11.75 12.25 11.75 9.5 11.4375 C8.943125 10.6125 8.38625 9.7875 7.8125 8.9375 C5.09985665 6.0049126 4.35438723 5.98179959 0.5 5.8125 C-2.88015803 6.02189032 -4.25913031 6.27692021 -7.125 8.1875 C-9.22551554 13.15235491 -9.28379254 18.1274821 -8.5 23.4375 C-7.33182475 25.68039648 -6.29239438 27.64510562 -4.5 29.4375 C-2.46618256 29.63715405 -2.46618256 29.63715405 -0.125 29.625 C1.06222656 29.64626953 1.06222656 29.64626953 2.2734375 29.66796875 C4.78731333 29.58257509 4.78731333 29.58257509 7.5 27.4375 C8.70450304 24.88566596 8.70450304 24.88566596 9.5 22.4375 C11.48 22.4375 13.46 22.4375 15.5 22.4375 C14.31603772 27.92677968 12.96844653 30.73195897 8.5 34.4375 C3.55644419 36.08535194 -1.35271241 36.14907593 -6.5 35.4375 C-10.76906836 33.18560312 -13.80523756 29.97255875 -15.5 25.4375 C-15.8359375 21.9765625 -15.8359375 21.9765625 -15.875 18.0625 C-15.90335938 16.77601563 -15.93171875 15.48953125 -15.9609375 14.1640625 C-15.28766482 8.72082404 -12.95697929 5.89690759 -9.15625 2.08984375 C-5.8785484 0.05092055 -3.8365387 -0.06722907 0 0 Z " fill="#0E0E0E" transform="translate(205.5,297.5625)"/>
<path d="M0 0 C1.11246094 -0.00773437 2.22492188 -0.01546875 3.37109375 -0.0234375 C7.56165603 0.49974163 10.05293128 2.18891029 13.3125 4.75 C14.94138879 6.86755542 15.20895665 8.75877923 15.5625 11.375 C13.5825 11.375 11.6025 11.375 9.5625 11.375 C8.9025 9.725 8.2425 8.075 7.5625 6.375 C5.62568839 6.29392417 3.6879066 6.23577525 1.75 6.1875 C0.67105469 6.15269531 -0.40789062 6.11789062 -1.51953125 6.08203125 C-4.4033349 6.13389465 -4.4033349 6.13389465 -6.26171875 7.63671875 C-9.16838065 11.93394316 -8.94786156 17.37518677 -8.4375 22.375 C-6.91547806 26.18339283 -6.91547806 26.18339283 -4.4375 29.375 C-0.07294812 29.91503583 3.42935863 30.19652749 7.0625 27.5625 C8.72076655 25.35970892 8.72076655 25.35970892 9.5625 22.375 C11.5425 22.375 13.5225 22.375 15.5625 22.375 C15.02952236 26.90530991 13.40229945 29.82525069 10.5625 33.375 C5.3505155 35.98541669 0.27232334 36.02995032 -5.4375 35.375 C-10.20396916 33.29508618 -12.67462232 30.44842801 -14.73828125 25.78125 C-16.35193896 20.22810393 -16.64127744 14.34875849 -14.44921875 8.93359375 C-10.73816483 2.69488701 -7.46918958 -0.05180941 0 0 Z " fill="#0D0D0D" transform="translate(408.4375,297.625)"/>
<path d="M0 0 C2.875 1.53125 2.875 1.53125 5 3 C4.34 4.65 3.68 6.3 3 8 C2.154375 7.67 1.30875 7.34 0.4375 7 C-3.20989216 5.93894046 -6.22274664 5.84890987 -10 6 C-9.67 6.99 -9.34 7.98 -9 9 C-6.28772234 9.92800244 -3.56435868 10.46364081 -0.76171875 11.05859375 C2.45168859 12.15397023 3.9335993 13.32351909 6 16 C5.93799128 19.53449683 5.79467038 21.95247995 3.625 24.8125 C-1.15171316 28.303175 -4.21173326 28.66014943 -10 28 C-12.51901986 27.2062105 -14.6350342 26.20764211 -17 25 C-16.67 23.02 -16.34 21.04 -16 19 C-15.43539062 19.15339844 -14.87078125 19.30679687 -14.2890625 19.46484375 C-11.97716719 20.00533805 -9.73505098 20.31386587 -7.375 20.5625 C-6.59898437 20.64628906 -5.82296875 20.73007812 -5.0234375 20.81640625 C-3.00665526 21.0301208 -3.00665526 21.0301208 -1 21 C-1 20.01 -1 19.02 -1 18 C-1.73605469 17.91363281 -2.47210937 17.82726562 -3.23046875 17.73828125 C-7.93886342 17.06032218 -11.25088092 16.52878994 -15.1875 13.75 C-17 11 -17 11 -17.625 8 C-17 5 -17 5 -15.25 2.125 C-10.42584383 -1.02925596 -5.61771934 -0.89644458 0 0 Z " fill="#4C4C4C" transform="translate(877,294)"/>
<path d="M0 0 C2.31 0 4.62 0 7 0 C13 13.36893204 13 13.36893204 13 17 C13.66 17 14.32 17 15 17 C15.0825 16.21625 15.165 15.4325 15.25 14.625 C16.18750464 10.09372755 17.62070893 3.37929107 21 0 C23.33297433 -0.04092937 25.66705225 -0.04241723 28 0 C27.37344935 3.66402203 26.35781607 6.87061201 24.93359375 10.30078125 C24.53076172 11.27724609 24.12792969 12.25371094 23.71289062 13.25976562 C23.29201172 14.26716797 22.87113281 15.27457031 22.4375 16.3125 C22.01275391 17.33923828 21.58800781 18.36597656 21.15039062 19.42382812 C20.10429072 21.95092341 19.05404084 24.47620894 18 27 C15.36 27 12.72 27 10 27 C8.32468327 23.06612462 6.66124197 19.12733737 5 15.1875 C4.28457031 13.50817383 4.28457031 13.50817383 3.5546875 11.79492188 C3.10351562 10.72177734 2.65234375 9.64863281 2.1875 8.54296875 C1.76855469 7.55321045 1.34960938 6.56345215 0.91796875 5.54370117 C0 3 0 3 0 0 Z " fill="#4C4C4C" transform="translate(940,294)"/>
<path d="M0 0 C11.33333333 0 11.33333333 0 15 3 C15.79083984 3.64582031 15.79083984 3.64582031 16.59765625 4.3046875 C18.94224297 7.13909039 18.52424479 9.93968751 18.42578125 13.484375 C17.73386434 17.57239786 16.04478083 19.2384546 13 22 C10 23 10 23 0 23 C0 15.41 0 7.82 0 0 Z " fill="#F5F5F5" transform="translate(817,291)"/>
<path d="M0 0 C0.61875 0.556875 1.2375 1.11375 1.875 1.6875 C1.875 2.6775 1.875 3.6675 1.875 4.6875 C-0.125 6.375 -0.125 6.375 -2.125 7.6875 C-3.115 7.0275 -4.105 6.3675 -5.125 5.6875 C-8.73367549 5.84577178 -8.73367549 5.84577178 -12.125 6.6875 C-13.63434217 9.70618434 -13.30010672 12.36047229 -13.125 15.6875 C-12.465 16.6775 -11.805 17.6675 -11.125 18.6875 C-7.82725726 18.93177724 -5.05225105 18.97082671 -1.875 18 C-1.2975 17.896875 -0.72 17.79375 -0.125 17.6875 C1.625 19.125 1.625 19.125 2.875 20.6875 C1.875 23.6875 1.875 23.6875 -0.75 25.375 C-5.66598528 27.28677205 -9.23787533 27.29137989 -14.25 25.6875 C-18.13359785 22.98586671 -20.24672166 20.01153651 -22.125 15.6875 C-23.06766687 9.7172765 -21.51181 6.44734108 -18.125 1.6875 C-13.18136902 -2.81992825 -5.89356034 -2.47529534 0 0 Z " fill="#4C4C4C" transform="translate(907.125,295.3125)"/>
<path d="M0 0 C1.98 0 3.96 0 6 0 C6 3.3 6 6.6 6 10 C8.31 10 10.62 10 13 10 C13 11.65 13 13.3 13 15 C10.69 15 8.38 15 6 15 C6.33 22.92 6.66 30.84 7 39 C8.98 39.33 10.96 39.66 13 40 C13 41.65 13 43.3 13 45 C11.58506449 45.10884119 10.16767057 45.18597617 8.75 45.25 C7.96109375 45.29640625 7.1721875 45.3428125 6.359375 45.390625 C3.0693069 44.84591174 2.06026744 43.58551772 0 41 C-0.45410156 38.15917969 -0.45410156 38.15917969 -0.390625 34.921875 C-0.37773438 33.76171875 -0.36484375 32.6015625 -0.3515625 31.40625 C-0.31804688 30.1996875 -0.28453125 28.993125 -0.25 27.75 C-0.23195313 26.52796875 -0.21390625 25.3059375 -0.1953125 24.046875 C-0.148181 21.03045922 -0.08239413 18.01562509 0 15 C-1.98 15 -3.96 15 -6 15 C-6 13.35 -6 11.7 -6 10 C-4.02 10 -2.04 10 0 10 C0 6.7 0 3.4 0 0 Z " fill="#141414" transform="translate(610,288)"/>
<path d="M0 0 C2.28591529 2.28591529 2.58916464 3.53703888 3.40234375 6.62109375 C3.77842773 8.02584961 3.77842773 8.02584961 4.16210938 9.45898438 C4.41798828 10.44189453 4.67386719 11.42480469 4.9375 12.4375 C5.18951172 13.38560547 5.44152344 14.33371094 5.70117188 15.31054688 C6.21059172 17.2270599 6.71758832 19.14421868 7.22216797 21.06201172 C8.4541793 25.71550334 9.72826647 30.35722356 11 35 C4.73 35 -1.54 35 -8 35 C-7.5630538 25.96977859 -5.15084471 17.72610996 -2.61767578 9.10400391 C-1.72818736 6.07411804 -0.86484147 3.03700144 0 0 Z " fill="#F5F5F5" transform="translate(440,165)"/>
<path d="M0 0 C1.65 0 3.3 0 5 0 C5 3.3 5 6.6 5 10 C7.31 10 9.62 10 12 10 C12 11.65 12 13.3 12 15 C9.69 15 7.38 15 5 15 C5.33 22.59 5.66 30.18 6 38 C7.98 38.66 9.96 39.32 12 40 C12 41.65 12 43.3 12 45 C4.63019694 45.4913202 4.63019694 45.4913202 1.890625 43.35546875 C-0.52836021 40.34173304 -0.46565772 38.7485436 -0.390625 34.921875 C-0.37773437 33.76171875 -0.36484375 32.6015625 -0.3515625 31.40625 C-0.31804687 30.1996875 -0.28453125 28.993125 -0.25 27.75 C-0.23195313 26.52796875 -0.21390625 25.3059375 -0.1953125 24.046875 C-0.148181 21.03045922 -0.08239413 18.01562509 0 15 C-1.98 15 -3.96 15 -6 15 C-6 13.35 -6 11.7 -6 10 C-4.02 10 -2.04 10 0 10 C0 6.7 0 3.4 0 0 Z " fill="#060606" transform="translate(322,288)"/>
<path d="M0 0 C1.65 0 3.3 0 5 0 C5.33 1.98 5.66 3.96 6 6 C6.61875 5.195625 7.2375 4.39125 7.875 3.5625 C10 1 10 1 12 0 C13.99960012 -0.039992 16.00047242 -0.04346799 18 0 C18 1.98 18 3.96 18 6 C15.02148438 6.5859375 15.02148438 6.5859375 12.04296875 7.171875 C9.32691821 8.27283621 8.5275311 9.51218509 7 12 C6.50051541 14.60162971 6.50051541 14.60162971 6.48828125 17.421875 C6.45283203 18.44667969 6.41738281 19.47148437 6.38085938 20.52734375 C6.34702148 22.12255859 6.34702148 22.12255859 6.3125 23.75 C6.27833984 24.82894531 6.24417969 25.90789062 6.20898438 27.01953125 C6.12659337 29.67958377 6.05741355 32.33931035 6 35 C4.02 35 2.04 35 0 35 C0 23.45 0 11.9 0 0 Z " fill="#101010" transform="translate(227,298)"/>
<path d="M0 0 C2.31 0 4.62 0 7 0 C7 12.21 7 24.42 7 37 C4.69 37 2.38 37 0 37 C0 24.79 0 12.58 0 0 Z " fill="#484848" transform="translate(1187,284)"/>
<path d="M0 0 C2.31 0 4.62 0 7 0 C7 12.21 7 24.42 7 37 C4.69 37 2.38 37 0 37 C0 24.79 0 12.58 0 0 Z " fill="#454545" transform="translate(1098,284)"/>
<path d="M0 0 C1.65 0 3.3 0 5 0 C5.33 1.65 5.66 3.3 6 5 C6.70125 4.175 7.4025 3.35 8.125 2.5 C11 0 11 0 14.3125 -0.3125 C15.199375 -0.209375 16.08625 -0.10625 17 0 C17 1.65 17 3.3 17 5 C15.906875 5.433125 14.81375 5.86625 13.6875 6.3125 C10.91203502 7.50679099 8.85170763 8.53105649 7 11 C6.0699111 13.7902667 5.81301231 15.76529542 5.68359375 18.66796875 C5.64169922 19.56064453 5.59980469 20.45332031 5.55664062 21.37304688 C5.49766602 22.76620117 5.49766602 22.76620117 5.4375 24.1875 C5.39431641 25.12787109 5.35113281 26.06824219 5.30664062 27.03710938 C5.20061335 29.35792854 5.09854971 31.67885325 5 34 C3.35 34 1.7 34 0 34 C0 22.78 0 11.56 0 0 Z " fill="#060606" transform="translate(629,298)"/>
<path d="M0 0 C2.31 0 4.62 0 7 0 C7.33 0.66 7.66 1.32 8 2 C8.99 1.34 9.98 0.68 11 0 C12.32 0 13.64 0 15 0 C15 1.98 15 3.96 15 6 C11.535 7.485 11.535 7.485 8 9 C7.67 14.94 7.34 20.88 7 27 C4.69 27 2.38 27 0 27 C0 18.09 0 9.18 0 0 Z " fill="#484848" transform="translate(1000,294)"/>
<path d="M0 0 C2.64 0 5.28 0 8 0 C8 8.91 8 17.82 8 27 C5.36 27 2.72 27 0 27 C0 18.09 0 9.18 0 0 Z " fill="#595959" transform="translate(848,294)"/>
<path d="M0 0 C1.98 0 3.96 0 6 0 C6 11.55 6 23.1 6 35 C4.02 35 2.04 35 0 35 C0 23.45 0 11.9 0 0 Z " fill="#151515" transform="translate(560,298)"/>
<path d="M0 0 C2.31 0 4.62 0 7 0 C7 8.91 7 17.82 7 27 C4.69 27 2.38 27 0 27 C0 18.09 0 9.18 0 0 Z " fill="#494949" transform="translate(1111,294)"/>
<path d="M0 0 C0.36601307 7.32026144 0.36601307 7.32026144 -1.3125 10.4375 C-4.12728789 13.04378508 -6.89242469 13.15726874 -10.5625 13.1875 C-11.74005859 13.20876953 -11.74005859 13.20876953 -12.94140625 13.23046875 C-15 13 -15 13 -17 11 C-17.375 8.0625 -17.375 8.0625 -17 5 C-13.92534513 1.96203552 -11.01165389 1.41091779 -6.8125 0.8125 C-5.21341797 0.57466797 -5.21341797 0.57466797 -3.58203125 0.33203125 C-1 0 -1 0 0 0 Z " fill="#F2F2F2" transform="translate(305,315)"/>
<path d="M0 0 C3.375 0.9375 3.375 0.9375 5.375 3.9375 C5.69994847 7.51193322 5.75573056 10.06405931 4.3125 13.375 C2.375 14.9375 2.375 14.9375 -1.125 15.4375 C-4.625 14.9375 -4.625 14.9375 -6.5625 13.375 C-8.03782332 9.99043473 -8.08174603 7.59146822 -7.625 3.9375 C-5.3368323 0.27643167 -4.34846249 -0.07497349 0 0 Z " fill="#F6F6F6" transform="translate(926.625,300.0625)"/>
<path d="M0 0 C3.4375 0.8125 3.4375 0.8125 5.4375 3.8125 C5.76244847 7.38693322 5.81823056 9.93905931 4.375 13.25 C2.4375 14.8125 2.4375 14.8125 -1.125 15.1875 C-4.5625 14.8125 -4.5625 14.8125 -6.5625 12.8125 C-6.86328125 10.28125 -6.86328125 10.28125 -6.875 7.3125 C-6.89175781 6.3328125 -6.90851563 5.353125 -6.92578125 4.34375 C-6.80589844 3.5084375 -6.68601562 2.673125 -6.5625 1.8125 C-3.5625 -0.1875 -3.5625 -0.1875 0 0 Z " fill="#F9F9F9" transform="translate(1169.5625,300.1875)"/>
<path d="M0 0 C3.3125 0.8125 3.3125 0.8125 4.3125 1.8125 C4.43737758 3.62177281 4.48820846 5.43646107 4.5 7.25 C4.51417969 8.23871094 4.52835938 9.22742188 4.54296875 10.24609375 C4.3125 12.8125 4.3125 12.8125 2.3125 14.8125 C-1.125 15.1875 -1.125 15.1875 -4.6875 14.8125 C-7.54326764 12.50946158 -7.66931881 10.95794949 -8.125 7.3125 C-7.6875 3.8125 -7.6875 3.8125 -6.125 1.3125 C-3.6875 -0.1875 -3.6875 -0.1875 0 0 Z " fill="#F8F8F8" transform="translate(1137.6875,300.1875)"/>
<path d="M0 0 C3.0625 2.25 3.0625 2.25 5 5 C5 6.32 5 7.64 5 9 C-1.27 9 -7.54 9 -14 9 C-13 3 -13 3 -11.5 1.125 C-7.66684452 -0.59991997 -4.12228087 -0.79218209 0 0 Z " fill="#F6F6F6" transform="translate(359,303)"/>
<path d="M0 0 C3.0625 2.25 3.0625 2.25 5 5 C5 6.32 5 7.64 5 9 C-1.27 9 -7.54 9 -14 9 C-13 3 -13 3 -11.5 1.125 C-7.66684452 -0.59991997 -4.12228087 -0.79218209 0 0 Z " fill="#F7F7F7" transform="translate(486,303)"/>
<path d="M0 0 C2.73246449 0.59593329 3.72571002 1.25181868 5.54296875 3.33984375 C7.41796875 6.52734375 7.41796875 6.52734375 7.41796875 9.52734375 C1.14796875 9.52734375 -5.12203125 9.52734375 -11.58203125 9.52734375 C-11.58203125 4.52734375 -11.58203125 4.52734375 -10.20703125 2.21484375 C-6.72930746 -0.02083583 -4.08297326 -0.15077449 0 0 Z " fill="#F7F7F7" transform="translate(264.58203125,302.47265625)"/>
<path d="M0 0 C2.45014666 1.79526875 3.37426159 3.3253981 5 6 C5 6.99 5 7.98 5 9 C-1.27 9 -7.54 9 -14 9 C-13 3 -13 3 -11.5 1.125 C-7.66170846 -0.60223119 -4.11920561 -0.92352297 0 0 Z " fill="#F9F9F9" transform="translate(156,303)"/>
<path d="M0 0 C9.625 -0.25 9.625 -0.25 13 2 C13.375 5 13.375 5 13 8 C8.61501596 10.92332269 5.2225328 10.1356502 0 10 C0 6.7 0 3.4 0 0 Z " fill="#F4F4F4" transform="translate(1042,291)"/>
<path d="M0 0 C3.25696479 0.41755959 4.63443291 0.63443291 7 3 C6.63318342 5.93453261 6.13562754 6.86437246 4 9 C1.06546739 8.63318342 0.13562754 8.13562754 -2 6 C-1.44444444 1.44444444 -1.44444444 1.44444444 0 0 Z " fill="#555555" transform="translate(1112,283)"/>
<path d="M0 0 C2.625 0.375 2.625 0.375 5 1 C5.625 3.3125 5.625 3.3125 6 6 C5.01 7.485 5.01 7.485 4 9 C-0.875 8.125 -0.875 8.125 -2 7 C-2.1875 4.5625 -2.1875 4.5625 -2 2 C-1.34 1.34 -0.68 0.68 0 0 Z " fill="#525252" transform="translate(850,283)"/>
<path d="M0 0 C1.91015625 0.23046875 1.91015625 0.23046875 3.91015625 2.23046875 C3.91015625 3.22046875 3.91015625 4.21046875 3.91015625 5.23046875 C-0.04984375 5.23046875 -4.00984375 5.23046875 -8.08984375 5.23046875 C-6.61379594 -0.67372249 -5.84549858 0.11669779 0 0 Z " fill="#F2F2F2" transform="translate(1082.08984375,299.76953125)"/>
<path d="M0 0 C3.625 0.25 3.625 0.25 5.5625 1.625 C6.625 3.25 6.625 3.25 6.625 5.25 C2.335 5.25 -1.955 5.25 -6.375 5.25 C-3.89423077 0.28846154 -3.89423077 0.28846154 0 0 Z " fill="#F3F3F3" transform="translate(1212.375,299.75)"/>
<path d="M0 0 C2 2 2 2 2 5 C-1.96 5 -5.92 5 -10 5 C-9.67 3.68 -9.34 2.36 -9 1 C-5.98675805 -0.50662097 -3.31713623 -0.17770373 0 0 Z " fill="#F5F5F5" transform="translate(986,300)"/>
<path d="M0 0 C1.98 0 3.96 0 6 0 C6 2.31 6 4.62 6 7 C4.02 7 2.04 7 0 7 C0 4.69 0 2.38 0 0 Z " fill="#181818" transform="translate(560,285)"/>
</svg>
